# xmcd CD database file
#
# Track frame offsets:
#	150
#	21782
#	40717
#	62335
#
# Disc length: 1079 seconds
#
# Revision: 0
# Processed by: cddbd v1.5.1PL2 Copyright (c) Steve Scherf et al.
# Submitted via: CDex 1.51
#
DISCID=24043504
DTITLE=石田燿子 - 幸せのいろ
DYEAR=2006
DGENRE=アニメ
TTITLE0=幸せのいろ
TTITLE1=僕らのキセキ
TTITLE2=幸せのいろ(Instrumental)
TTITLE3=僕らのキセキ(Instrumental)
EXTD=YEAR: 2006
EXTT0=
EXTT1=
EXTT2=
EXTT3=
PLAYORDER=
